<svg xmlns="http://www.w3.org/2000/svg" viewBox="0 0 24 24" fill="#e3c565"><path d="M7.75 2A5.75 5.75 0 0 0 2 7.75v8.5A5.75 5.75 0 0 0 7.75 22h8.5A5.75 5.75 0 0 0 22 16.25v-8.5A5.75 5.75 0 0 0 16.25 2h-8.5zm8.5 1.5A4.25 4.25 0 0 1 20.5 7.75v8.5a4.25 4.25 0 0 1-4.25 4.25h-8.5A4.25 4.25 0 0 1 3.5 16.25v-8.5A4.25 4.25 0 0 1 7.75 3.5h8.5zm-4.25 3a5.25 5.25 0 1 0 0 10.5a5.25 5.25 0 0 0 0-10.5zm0 1.5a3.75 3.75 0 1 1 0 7.5a3.75 3.75 0 0 1 0-7.5zm5.13-.75a.87.87 0 1 1-1.74 0a.87.87 0 0 1 1.74 0z"/></svg>
